<?xml version="1.0" encoding="UTF-8"?>
<svg xmlns="http://www.w3.org/2000/svg" width="16" height="16" viewBox="0 0 16 16">
  <g fill="currentColor">
    <!-- Simple hourglass symbolic icon -->
    <path d="M4 1h8c.55 0 1 .45 1 1s-.45 1-1 1H4C3.45 3 3 2.55 3 2s.45-1 1-1z"/>
    <path d="M4 15h8c.55 0 1-.45 1-1s-.45-1-1-1H4c-.55 0-1 .45-1 1s.45 1 1 1z"/>
    <path d="M4 4h8v1c0 .53-.21 1.04-.59 1.41L9.41 8l1.99 1.59c.38.37.6.88.6 1.41v1H4v-1c0-.53.22-1.04.59-1.41L6.59 8 4.59 6.41A2 2 0 0 1 4 5V4z"/>
  </g>
</svg>
